<?xml version="1.0" encoding="UTF-8"?>
<!-- Do not edit this file with editors other than diagrams.net -->
<!DOCTYPE svg PUBLIC "-//W3C//DTD SVG 1.1//EN" "http://www.w3.org/Graphics/SVG/1.1/DTD/svg11.dtd">
<svg xmlns="http://www.w3.org/2000/svg" xmlns:xlink="http://www.w3.org/1999/xlink" version="1.1" width="181px" height="151px" viewBox="-0.5 -0.5 181 151" content="&lt;mxfile host=&quot;drawio-plugin&quot; modified=&quot;2022-12-18T19:36:14.881Z&quot; agent=&quot;5.0 (Macintosh; Intel Mac OS X 10_15_7) AppleWebKit/537.36 (KHTML, like Gecko) Chrome/104.0.5112.102 Safari/537.36&quot; etag=&quot;fplKExaOeENEaVOgCfh-&quot; version=&quot;20.5.3&quot; type=&quot;embed&quot;&gt;&lt;diagram id=&quot;23iRSUPoRavnBvh4doch&quot; name=&quot;Page-1&quot;&gt;7Zlfj6IwFMU/Da8bgcE/r7Czu8m6yUY32cfJHVuhSW1JqavOp99bWkRFNphVJ0NMjKGHy6U9v3IewAuT1fargjz7IQnlXjAgWy/87AXBOBjhvxF2VhiNnqyQKkas5NfCnL1RJw6cumaEFkeFWkquWX4sLqQQdKGPNFBKbo7LlpIf3zWHlDaE+QJ4U/3NiM5OlmX0b5SlWXVnfzixZ1ZQFbuVFBkQuTmQwmcvTJSU2h6ttgnlxrvKF3vdl5az+4kpKnSXC4KxveIP8LVbnJKcviwyQOt44Wapd9XSccK5OdTwaqS40KC0IxQOUEDPNTBBFQp+OeYc8oKV5VbJGCdT2Mm1rhpVo3jJtpTMLCBTi6ym2MwMTfMlNp+7yZjTwFkq8HiByzV3jBUtcC5TKLSrcMujStNtq0f+3nncsVSuqFY7LHEXhBWs3cl4U7P3x07LDrlHTgS339J97xoJHjgqLYQmDUL/hjIz+ynOpGJvBgV31h2CKscbtuIgcKMCOZFiWT6YpeGM80RyaWgKKWgDqCkiSua/QKVUOyGXTOhyzVGMP3QhGXyKvAjnmuDYr8f4M+VKJ1IUWuHGMT0o8ttQwzDWMndNOV1W/ZXz2By/Sq3l6hLads83cVd4O9INrwC36nEA9+f3Vry4CM2AzzDSQKTcwigTDmoYZ4id9XDv26mhp8+YRDuXvAypjBFCRWefJ+d9PjA2vNBX16x24OJuwDEoBGjc5GtBigas/Ty78fMb/FxyvmDJ+3KsstHWxkUOCybSqb1yeAI6ugXordf6QEVXBd+p3ZXJB49Y7hTLgyvF8vCesRx2h3ufh5kSVvX7r0y227bfmfzUgFdQhb58gEi+OtdeR3D0iOC7RvDknhE87G0ER/2P4FEDnnn2gsF7M7xhALdQ7XUAN18ePQL4lgHsd33zdJUEvuDF0wdL4BaXe5TAT80XSzaBw/4mcAvVHiUwDutPA7a8/r4SPv8F&lt;/diagram&gt;&lt;/mxfile&gt;"><defs><clipPath id="mx-clip-0-30-30-30-0"><rect x="0" y="30" width="30" height="30"/></clipPath><clipPath id="mx-clip-36-30-144-30-0"><rect x="36" y="30" width="144" height="30"/></clipPath><clipPath id="mx-clip-36-60-144-30-0"><rect x="36" y="60" width="144" height="30"/></clipPath><clipPath id="mx-clip-36-90-144-30-0"><rect x="36" y="90" width="144" height="30"/></clipPath><clipPath id="mx-clip-36-120-144-30-0"><rect x="36" y="120" width="144" height="30"/></clipPath></defs><g><path d="M 0 30 L 0 0 L 180 0 L 180 30" fill="rgb(255, 255, 255)" stroke="rgb(0, 0, 0)" stroke-miterlimit="10" pointer-events="all"/><path d="M 0 30 L 0 150 L 180 150 L 180 30" fill="none" stroke="rgb(0, 0, 0)" stroke-miterlimit="10" pointer-events="none"/><path d="M 0 30 L 180 30" fill="none" stroke="rgb(0, 0, 0)" stroke-miterlimit="10" pointer-events="none"/><path d="M 30 30 L 30 60 L 30 90 L 30 120 L 30 150" fill="none" stroke="rgb(0, 0, 0)" stroke-miterlimit="10" pointer-events="none"/><g fill="rgb(0, 0, 0)" font-family="Helvetica" font-weight="bold" pointer-events="none" text-anchor="middle" font-size="12px"><text x="89.5" y="19.5">role_channels</text></g><path d="M 0 30 M 180 30 M 180 60 L 0 60" fill="none" stroke="rgb(0, 0, 0)" stroke-linecap="square" stroke-miterlimit="10" pointer-events="none"/><path d="M 0 30 M 30 30 M 30 60 M 0 60" fill="none" stroke="rgb(0, 0, 0)" stroke-linecap="square" stroke-miterlimit="10" pointer-events="none"/><g fill="rgb(0, 0, 0)" font-family="Helvetica" font-weight="bold" pointer-events="none" clip-path="url(#mx-clip-0-30-30-30-0)" text-anchor="middle" font-size="12px"><text x="14.5" y="49.5">PK</text></g><path d="M 30 30 M 180 30 M 180 60 M 30 60" fill="none" stroke="rgb(0, 0, 0)" stroke-linecap="square" stroke-miterlimit="10" pointer-events="none"/><g fill="rgb(0, 0, 0)" font-family="Helvetica" font-weight="bold" text-decoration="underline" pointer-events="none" clip-path="url(#mx-clip-36-30-144-30-0)" font-size="12px"><text x="37.5" y="49.5">channel_id</text></g><path d="M 0 60 M 30 60 M 30 90 M 0 90" fill="none" stroke="rgb(0, 0, 0)" stroke-linecap="square" stroke-miterlimit="10" pointer-events="none"/><path d="M 30 60 M 180 60 M 180 90 M 30 90" fill="none" stroke="rgb(0, 0, 0)" stroke-linecap="square" stroke-miterlimit="10" pointer-events="none"/><g fill="rgb(0, 0, 0)" font-family="Helvetica" pointer-events="none" clip-path="url(#mx-clip-36-60-144-30-0)" font-size="12px"><text x="37.5" y="79.5">server_id</text></g><path d="M 0 90 M 30 90 M 30 120 M 0 120" fill="none" stroke="rgb(0, 0, 0)" stroke-linecap="square" stroke-miterlimit="10" pointer-events="none"/><path d="M 30 90 M 180 90 M 180 120 M 30 120" fill="none" stroke="rgb(0, 0, 0)" stroke-linecap="square" stroke-miterlimit="10" pointer-events="none"/><g fill="rgb(0, 0, 0)" font-family="Helvetica" pointer-events="none" clip-path="url(#mx-clip-36-90-144-30-0)" font-size="12px"><text x="37.5" y="109.5">Row 2</text></g><path d="M 0 120 M 30 120 M 30 150 M 0 150" fill="none" stroke="rgb(0, 0, 0)" stroke-linecap="square" stroke-miterlimit="10" pointer-events="none"/><path d="M 30 120 M 180 120 M 180 150 M 30 150" fill="none" stroke="rgb(0, 0, 0)" stroke-linecap="square" stroke-miterlimit="10" pointer-events="none"/><g fill="rgb(0, 0, 0)" font-family="Helvetica" pointer-events="none" clip-path="url(#mx-clip-36-120-144-30-0)" font-size="12px"><text x="37.5" y="139.5">Row 3</text></g></g></svg>